<?xml version="1.0" encoding="utf-8"?>
<!-- Generator: Adobe Illustrator 14.0.0, SVG Export Plug-In . SVG Version: 6.00 Build 43363)  -->
<!DOCTYPE svg PUBLIC "-//W3C//DTD SVG 1.1//EN" "http://www.w3.org/Graphics/SVG/1.1/DTD/svg11.dtd">
<svg version="1.1" id="Layer_1" xmlns="http://www.w3.org/2000/svg" xmlns:xlink="http://www.w3.org/1999/xlink" x="0px" y="0px"
	 width="150px" height="150px" viewBox="0 0 150 150" enable-background="new 0 0 150 150" xml:space="preserve">
<g id="Layer_2">
	<g>
		
			<rect x="65.961" y="65.893" transform="matrix(-0.9482 0.3176 -0.3176 -0.9482 170.1053 121.7666)" fill="#FFFFFF" width="18.333" height="17.709"/>
		<g>
			
				<rect x="65.961" y="65.893" transform="matrix(-0.9482 0.3176 -0.3176 -0.9482 170.1053 121.7666)" fill="#FFFFFF" width="18.333" height="17.709"/>
			<path fill="#FFFFFF" d="M134.818,56.732C121.379,11.94,102.006,1.523,57.213,14.96C12.421,28.398,2.005,47.773,15.442,92.564
				c13.438,44.791,32.813,55.209,77.605,41.771C137.838,120.899,148.254,101.522,134.818,56.732z M112.213,85.793l-8.438,2.813
				l2.918,8.751c1.143,3.54-0.73,7.395-4.271,8.542c-0.73,0.209-1.564,0.417-2.295,0.312c-2.707-0.103-5.311-1.875-6.248-4.583
				l-2.918-8.75L73.567,98.71l2.917,8.751c1.143,3.542-0.729,7.395-4.271,8.54c-0.729,0.211-1.564,0.417-2.292,0.313
				c-2.708-0.103-5.312-1.873-6.25-4.582l-2.916-8.751l-8.438,2.813c-0.729,0.21-1.563,0.416-2.292,0.313
				c-2.709-0.104-5.313-1.875-6.251-4.585c-1.145-3.542,0.729-7.395,4.271-8.54l8.438-2.813l-5.625-16.771l-8.438,2.813
				c-0.729,0.209-1.562,0.415-2.292,0.312c-2.708-0.103-5.313-1.874-6.25-4.583c-1.146-3.542,0.729-7.396,4.27-8.541l8.438-2.813
				l-2.916-8.75c-1.147-3.542,0.729-7.396,4.271-8.543c3.542-1.145,7.396,0.729,8.542,4.271l2.916,8.75l17.397-5.834l-2.917-8.749
				c-1.146-3.542,0.729-7.396,4.272-8.541c3.541-1.147,7.395,0.728,8.539,4.27l2.916,8.751l8.438-2.813
				c3.541-1.147,7.396,0.728,8.543,4.269c1.148,3.542-0.73,7.396-4.271,8.543l-8.438,2.813l5.625,16.77l8.438-2.813
				c3.541-1.145,7.396,0.729,8.543,4.272C117.629,80.795,115.754,84.647,112.213,85.793z"/>
		</g>
	</g>
</g>
</svg>
